<?xml version="1.0" encoding="UTF-8" standalone="no"?>
<!-- Created with Inkscape (http://www.inkscape.org/) -->

<svg
   xmlns:dc="http://purl.org/dc/elements/1.1/"
   xmlns:cc="http://creativecommons.org/ns#"
   xmlns:rdf="http://www.w3.org/1999/02/22-rdf-syntax-ns#"
   xmlns:svg="http://www.w3.org/2000/svg"
   xmlns="http://www.w3.org/2000/svg"
   xmlns:xlink="http://www.w3.org/1999/xlink"
   xmlns:sodipodi="http://sodipodi.sourceforge.net/DTD/sodipodi-0.dtd"
   xmlns:inkscape="http://www.inkscape.org/namespaces/inkscape"
   version="1.1"
   width="700"
   height="500"
   viewBox="0 0 7.7777778 5.5555556"
   id="svg2"
   xml:space="preserve"
   style="fill-rule:evenodd"
   inkscape:version="0.48.3.1 r9886"
   sodipodi:docname="Flag_of_Albania.svg"><sodipodi:namedview
   pagecolor="#ffffff"
   bordercolor="#666666"
   borderopacity="1"
   objecttolerance="10"
   gridtolerance="10"
   guidetolerance="10"
   inkscape:pageopacity="0"
   inkscape:pageshadow="2"
   inkscape:window-width="1366"
   inkscape:window-height="686"
   id="namedview8"
   showgrid="false"
   inkscape:zoom="0.65053824"
   inkscape:cx="357.41416"
   inkscape:cy="319.58255"
   inkscape:window-x="-9"
   inkscape:window-y="35"
   inkscape:window-maximized="1"
   inkscape:current-layer="svg2" /><metadata
   id="metadata19"><rdf:RDF><cc:Work
       rdf:about=""><dc:format>image/svg+xml</dc:format><dc:type
         rdf:resource="http://purl.org/dc/dcmitype/StillImage" /><dc:title /></cc:Work></rdf:RDF></metadata>
 <defs
   id="defs4"><color-profile
     name="Coated-FOGRA39--ISO-12647-2:2004-"
     xlink:href="/usr/share/color/icc/Adobe_ICC_Profiles_(end-user)-2011/CoatedFOGRA39.icc"
     id="color-profile3752" /><style
     type="text/css"
     id="style6" /></defs>
 <polygon
   points="2.79654,2.00449 2.79654,0.00505118 -0.00206693,0.00505118 -0.00206693,2.00449 "
   transform="matrix(2.7791605,0,0,2.7785574,0.00574433,-0.01403499)"
   id="_148171424"
   style="fill:#e41e20;fill-opacity:1;fill-rule:nonzero" /><path
   d="M 3.8853475,1.6277647 C 3.9255,1.5730662 3.9884228,1.5250633 4.0387906,1.4921645 4.0231777,1.4706514 3.997158,1.4596393 3.9637887,1.4559217 c 0.047024,-0.047119 0.1445177,-0.054834 0.2339307,-0.069523 -0.01914,-0.024347 -0.06821,-0.037175 -0.136524,-0.027971 0.014316,-0.044054 0.089126,-0.067844 0.1628303,-0.094286 -0.01766,-0.034061 -0.053815,-0.059205 -0.1223038,-0.091268 0.083179,-0.006 0.1551071,-0.02551 0.226311,-0.047119 0.055487,-0.018726 0.1096683,-0.031785 0.1628302,-0.036339 0.093402,-0.00479 0.1223039,0.02426 0.1167305,0.06102 0.1502823,-0.025837 0.1885794,0.02063 0.1852354,0.076299 -0.014595,-0.020167 -0.030391,-0.029602 -0.056889,-0.031975 -0.059571,0.019053 -0.1049305,0.040152 -0.1454493,0.077836 0.10056,-0.01891 0.2149652,0.013615 0.2828172,-0.1244058 0.038949,-0.023003 0.062183,-0.023003 0.052047,0.02723 -0.039221,0.1159422 -0.1842957,0.094525 -0.2860736,0.1159422 0.030582,0.018822 0.090615,0.029786 0.1548365,0.014825 -0.0039,0.027326 -0.025653,0.043775 -0.092749,0.056833 -0.4771609,0.096284 -0.4803217,0.284537 -0.5053223,0.3437421 -0.028161,0.2056817 0.2450856,0.2859782 0.2643218,0.011991 -0.00614,-0.027326 -0.01301,-0.077375 -0.019053,-0.1046041 C 4.5235623,1.5155881 4.6835184,1.4683735 4.856763,1.415076 4.865953,1.430132 4.879343,1.443843 4.888452,1.458851 5.0687588,1.436963 5.22889,1.369948 5.3368861,1.1775227 c 0.081324,-0.080909 0.131046,-0.018361 0.1266751,0.065846 -0.1162686,0.3182796 -0.4188793,0.3117269 -0.5205615,0.317993 -0.081881,0.066778 -0.039316,0.1062765 0.03188,0.1208707 0.1400669,7.381e-4 0.2818856,0.0058 0.3731537,-0.1043252 0.1120886,-0.061857 0.098426,0.00999 0.1018657,0.063481 -0.06376,0.1849956 -0.2611612,0.187225 -0.4951874,0.1381076 -0.098696,-0.029228 -0.089867,0.06278 -0.02258,0.1039036 0.1565084,0.06427 0.3094897,0.1092542 0.4272472,-0.015709 0.066171,-0.050511 0.097033,-0.029228 0.092661,0.063202 -0.1115313,0.2272903 -0.3157161,0.1452183 -0.4973286,0.06102 -0.1125505,-0.032525 -0.083832,0.029411 -0.056411,0.092893 0.2092964,0.1460543 0.3426674,0.1532122 0.4453768,0.1042776 0.1175664,-0.04661 0.1276938,0.067701 0.060965,0.1173833 -0.1439686,0.0586 -0.2880245,0.00558 -0.4318973,-0.092614 -0.070727,-0.049587 -0.11431,-0.006 -0.067844,0.058831 0.1560545,0.1604178 0.2985261,0.2018279 0.4341265,0.1829979 0.1395016,0.00837 0.1098592,0.089923 0.043305,0.1448442 -0.1413647,0.064739 -0.3060501,-0.046744 -0.4444372,-0.1731882 -0.06524,-0.03848 -0.094804,-0.015151 -0.053441,0.080583 0.1512137,0.2460091 0.3410907,0.3024674 0.5022491,0.2445281 0.096466,-0.00335 0.07993,0.054508 0.043958,0.1176062 -0.130576,0.1012692 -0.3092187,-0.00599 -0.5167476,-0.2131098 -0.071936,-0.068784 -0.083179,-0.016171 -0.068314,0.043823 0.1409906,0.2434134 0.3116315,0.3814262 0.5295825,0.3614416 0.078346,-0.013249 0.092008,0.019514 0.040981,0.099262 -0.1724,0.1255211 -0.299075,0.00521 -0.4252961,-0.1150578 C 4.9125213,2.9559891 4.8338891,2.8652704 4.7556309,2.774878 4.6912269,2.721024 4.6593469,2.742305 4.6560029,2.806384 c 0.016258,0.1507599 0.101308,0.2187871 0.2081816,0.2601972 0.074723,0.042652 0.032438,0.066538 -0.034579,0.086339 C 4.6924287,3.1535731 4.6122198,3.0187212 4.5595196,2.8197277 4.5016196,2.7574647 4.4542141,2.7770757 4.4528292,2.8403647 4.4629602,2.9526364 4.5079422,2.99083 4.5677921,3.030616 4.6289471,3.094279 4.5545991,3.10655 4.5180691,3.091494 4.4113791,3.016349 4.3596105,2.9387033 4.3438059,2.8699677 c -0.033735,-0.062733 -0.096475,-0.027413 -0.085783,0.040709 0.067845,0.2151165 0.2165496,0.3327228 0.4387683,0.3619592 0.020446,0.00335 0.02723,0.016824 0.020446,0.040622 -0.027238,0.027787 -0.054467,0.05567 -0.081419,0.083649 0.1244455,0.036378 0.2486205,0.072255 0.3728749,0.1086889 0.060965,-0.040152 0.1223118,-0.079747 0.1834677,-0.119987 0.015614,-0.037405 0.023329,-0.094428 0.1132909,-0.054046 0.06106,-0.028671 0.089221,-0.018026 0.1230523,0.010173 -0.049165,0.0019 -0.070081,0.014738 -0.0895,0.037127 -0.024721,0.065766 -0.082717,0.072032 -0.1413648,0.053449 -0.038751,0.032581 -0.074723,0.072534 -0.1132033,0.1048829 0.071754,-0.00238 0.1469383,-0.011202 0.2183173,-0.013615 0.047397,-0.066506 0.1133867,-0.066506 0.1619069,-0.00893 0.037175,0.00589 0.062733,0.00372 0.088474,0.048798 -0.040336,-0.016362 -0.065338,-0.02129 -0.0829,-0.00367 -0.072406,0.042143 -0.1200827,0.032707 -0.1559595,0 -0.070074,0.00465 -0.1521373,0.014077 -0.2224972,0.018726 0.025741,0.021887 0.05567,0.042843 0.081228,0.064922 0.1052094,-0.030168 0.1602346,0.010163 0.1783561,0.096006 0.014403,0.034667 0.021004,0.070829 0.014865,0.1078608 -0.00994,-0.034015 -0.026577,-0.063116 -0.056593,-0.081603 -0.093593,0.023703 -0.1289043,-0.014634 -0.1339284,-0.070399 -0.045263,-0.036952 -0.092104,-0.064739 -0.1374634,-0.1014517 -0.052692,0.016545 -0.1053921,0.032907 -0.1584591,0.049953 -0.01887,0.05739 -0.061897,0.080439 -0.1310461,0.065384 -0.082072,0.00256 -0.068035,0.036155 -0.074453,0.063202 -0.022206,-0.038751 -0.021283,-0.076204 0.029372,-0.1107829 0.018487,-0.050041 0.059484,-0.073099 0.1132909,-0.043959 0.050463,-0.014355 0.1088323,-0.039125 0.1591997,-0.05321 C 4.8487304,3.5235819 4.7111793,3.4829669 4.583756,3.4424408 c -0.03188,0.030263 -0.063202,0.060225 -0.094795,0.090106 -0.017198,0.010459 -0.033369,0.012739 -0.043035,0 C 4.35336,3.4297662 4.2743614,3.2890061 4.1765884,3.1687406 4.1046522,3.1086511 4.0047372,3.0984841 4.0229542,3.2498814 4.1654337,3.668482 4.3566085,3.6724789 4.4704647,3.6661572 c 0.073704,0.00879 0.094612,0.036577 0.034014,0.086061 -0.1792876,0.075934 -0.213118,-0.012357 -0.2782629,-0.065472 -0.050567,-0.017525 -0.076212,-0.00362 -0.047398,0.078951 0.068305,0.080806 0.1421052,0.1322085 0.2263111,0.1312769 0.088665,0.011895 0.070727,0.043591 0.025183,0.087454 C 4.3076336,4.0241111 4.1976788,3.9346581 4.1564198,3.874386 4.1192448,3.828517 4.0820638,3.833772 4.0883848,3.896973 c 0.037087,0.114549 0.096013,0.1774645 0.1786348,0.1832846 0.067382,-0.00647 0.068314,0.045669 0.018966,0.080248 C 4.1513168,4.2090256 4.054746,4.0629156 4.0431296,4.011051 4.0159956,3.939768 3.9749986,3.97328 3.9709146,4.032668 3.9704528,4.111571 3.9882076,4.1867639 4.0929477,4.2657547 l -0.20178,0.3786018 C 3.8178379,4.5272917 3.7579877,4.3952742 3.6847536,4.2785916 3.7893102,4.1995929 3.807344,4.1244557 3.8067867,4.0453536 c -0.00428,-0.059205 -0.045446,-0.093171 -0.072398,-0.02133 -0.011434,0.051864 -0.1081793,0.197632 -0.242856,0.149486 -0.04907,-0.034993 -0.048138,-0.086714 0.018957,-0.08048 0.082717,-0.00572 0.1415478,-0.068633 0.1786348,-0.1832288 0.0066,-0.063298 -0.030669,-0.068505 -0.068027,-0.022724 -0.041546,0.060503 -0.1512138,0.1497805 -0.2738919,0.1104086 -0.045543,-0.044189 -0.063202,-0.07579 0.025183,-0.087685 0.08411,0.00116 0.158276,-0.050248 0.226311,-0.1312292 0.028814,-0.082398 0.00316,-0.096523 -0.047398,-0.079007 -0.064874,0.053019 -0.098705,0.1417389 -0.2782629,0.065384 -0.06032,-0.049587 -0.039683,-0.07755 0.034014,-0.085822 0.1140393,0.00609 0.3051266,0.00208 0.4477891,-0.4163793 C 3.7727804,3.1113028 3.6728733,3.1213349 3.6009288,3.1815677 3.5031557,3.3014671 3.4241572,3.4426328 3.33187,3.545613 3.32193,3.558256 3.305755,3.555712 3.288835,3.545613 3.257425,3.515318 3.225633,3.485158 3.193761,3.455093 3.0664331,3.495618 2.9287866,3.536464 2.8013633,3.5770783 c 0.050376,0.014316 0.1087365,0.038854 0.159303,0.05321 0.053719,-0.029005 0.094795,-0.0061 0.1132909,0.044149 0.050837,0.03438 0.05149,0.07208 0.029556,0.1109739 -0.00669,-0.027087 0.00781,-0.06079 -0.074723,-0.063385 C 2.9594572,3.7367952 2.9166139,3.7139362 2.8977441,3.6565942 2.8446691,3.6398182 2.7919772,3.6233682 2.7392769,3.6064972 2.6942049,3.6438152 2.6470779,3.6712362 2.601917,3.708084 2.596807,3.76412 2.561582,3.802377 2.4678931,3.778579 c -0.030065,0.018257 -0.046427,0.047302 -0.056601,0.081173 -0.0061,-0.037031 7.38e-4,-0.07282 0.014825,-0.1074388 0.018496,-0.085774 0.073377,-0.1261176 0.1784914,-0.096045 0.025741,-0.022071 0.055392,-0.042987 0.081132,-0.064866 -0.070074,-0.0046 -0.1524239,-0.014316 -0.2224096,-0.018591 -0.035972,0.032668 -0.08337,0.042055 -0.1559114,0 -0.017381,-0.017892 -0.042708,-0.01282 -0.082765,0.00362 0.02547,-0.045216 0.05098,-0.043122 0.088203,-0.04884 0.048839,-0.057446 0.1145012,-0.057446 0.1618988,0.00887 0.071475,0.00218 0.146564,0.011441 0.2182217,0.013894 C 2.654594,3.5179222 2.618629,3.4775382 2.5802365,3.4451966 2.5212225,3.4639316 2.463506,3.4574656 2.4385054,3.3916196 c -0.019149,-0.022254 -0.040383,-0.035128 -0.089221,-0.036952 0.03383,-0.028249 0.061809,-0.038616 0.1227736,-0.010459 0.08997,-0.040431 0.097685,0.016736 0.1137607,0.054317 0.060965,0.040009 0.1220331,0.079883 0.1829979,0.1198515 0.1242624,-0.036251 0.2487081,-0.072359 0.372875,-0.1085056 -0.026952,-0.027883 -0.054181,-0.055949 -0.081132,-0.083928 -0.00707,-0.023607 -1.831e-4,-0.036944 0.020168,-0.040566 C 3.3031373,3.256479 3.4513733,3.138633 3.5196869,2.9234767 3.5299131,2.8552982 3.46764,2.8199396 3.433714,2.8825275 3.4179173,2.9515416 3.3661482,3.0291871 3.2596413,3.1044675 3.2229284,3.1192934 3.1485718,3.1071297 3.2100136,3.0434632 3.2697682,3.0036856 3.314849,2.9656195 3.3249765,2.853395 3.323582,2.7899102 3.2758982,2.7702121 3.2179989,2.8324831 3.16502,3.0315637 3.0850897,3.1663281 2.9481916,3.1656753 2.8810881,3.1459694 2.838611,3.122179 2.9135252,3.0794231 3.0204067,3.0378775 3.1052654,2.970169 3.1213406,2.8192339 3.1181797,2.7550127 3.0862999,2.7340567 3.0218956,2.7876329 2.9433588,2.8782481 2.8651084,2.9687756 2.7868502,3.0592556 2.6604539,3.1796564 2.5340576,3.2999619 2.3616969,3.1745051 2.3103979,3.0946703 2.3240129,3.0616679 2.4023189,3.0749645 2.6205883,3.0951319 2.7912293,2.956976 2.9319413,2.7134273 2.9470932,2.6537601 2.9356603,2.6011078 2.8636278,2.6693735 2.6560908,2.8768149 2.4774639,2.9841582 2.3471106,2.8830889 2.3108676,2.8197519 2.2944106,2.761844 2.3911166,2.765196 c 0.1608795,0.05813 0.3507567,0.00171 0.5019705,-0.2445838 0.041354,-0.0954 0.011895,-0.1186812 -0.053441,-0.08044 -0.138387,0.1261257 -0.303176,0.2374659 -0.44388,0.1731968 -0.06692,-0.054969 -0.096523,-0.1363488 0.042756,-0.1446691 0.1356003,0.018775 0.2780797,-0.02281 0.4341265,-0.183181 0.046466,-0.064826 0.00316,-0.1081873 -0.067566,-0.059022 -0.1441515,0.098426 -0.2882075,0.1512138 -0.4322714,0.092805 -0.066499,-0.049491 -0.056784,-0.1641837 0.061299,-0.1176142 0.1026539,0.049165 0.2363034,0.041968 0.4454165,-0.1041424 0.0277,-0.063481 0.055861,-0.1255205 -0.05641,-0.092805 -0.1816046,0.084158 -0.3863069,0.1662699 -0.4976072,-0.060781 -0.00437,-0.092796 0.026769,-0.1139437 0.092796,-0.063386 0.1179008,0.1249553 0.2705955,0.080026 0.4273906,0.015797 0.067015,-0.041218 0.076125,-0.1333711 -0.02258,-0.1040472 -0.2343049,0.049117 -0.4312442,0.046936 -0.49537,-0.1381562 0.0033,-0.053393 -0.00999,-0.1250985 0.1018183,-0.063289 0.091403,0.1098991 0.2333256,0.1049791 0.3731139,0.1040949 0.071475,-0.014451 0.1139438,-0.053951 0.032159,-0.1207753 -0.1016745,-0.00618 -0.4045237,4.219e-4 -0.5206969,-0.3179533 -0.00417,-0.084525 0.045407,-0.1466596 0.1265874,-0.06575 0.1079484,0.1924329 0.2683661,0.2593054 0.4484898,0.2812407 0.0093,-0.015335 0.02258,-0.028489 0.031601,-0.043775 0.1735152,0.052971 0.3331926,0.10056 0.4154477,0.1990732 -0.00604,0.027143 -0.012922,0.077375 -0.018775,0.1042776 -0.024068,0.2743141 0.286448,0.1938743 0.2640511,-0.011799 -0.025,-0.059245 -0.028161,-0.2473148 -0.5051314,-0.3434635 -0.067287,-0.013201 -0.08876,-0.029881 -0.092845,-0.056976 0.064405,0.014921 0.1242624,0.00417 0.1547488,-0.014961 -0.1014907,-0.021234 -0.2469485,0 -0.2857949,-0.115799 -0.010501,-0.050376 0.012827,-0.050097 0.051952,-0.027229 0.067661,0.1380604 0.182162,0.1051618 0.2828172,0.1242146 -0.040431,-0.037405 -0.086069,-0.058552 -0.1456404,-0.077605 -0.026299,0.0025 -0.042286,0.011529 -0.056602,0.031513 -0.00344,-0.055304 0.034483,-0.1017221 0.1849486,-0.075934 -0.00539,-0.036943 0.023512,-0.065384 0.1169215,-0.06102 0.052979,0.0048 0.1072557,0.017612 0.1626472,0.036387 0.071474,0.021657 0.1431323,0.041171 0.226311,0.047071 -0.068871,0.032015 -0.1048354,0.057485 -0.1220331,0.091268 0.07333,0.026673 0.148236,0.050097 0.1625516,0.094516 -0.068218,-0.00943 -0.1173834,0.00325 -0.1363487,0.027796 0.089221,0.01473 0.186533,0.02235 0.2336599,0.069563 -0.033369,0.00362 -0.088577,0.013336 -0.074635,0.036156 0.011609,0.018942 0.1462773,0.126659 0.1462773,0.1227577 M 3.2815116,1.1841556 c 0.043958,0 0.079739,0.015056 0.079739,0.033321 0,0.018582 -0.035781,0.0336 -0.079739,0.0336 -0.043775,0 -0.079747,-0.015008 -0.079747,-0.0336 7.9e-6,-0.018265 0.035972,-0.033321 0.079747,-0.033321 m 1.2154824,-0.00256 c 0.043775,0 0.080018,0.014873 0.080018,0.03313 0,0.018543 -0.036243,0.0336 -0.080018,0.0336 -0.043958,0 -0.079651,-0.015056 -0.079651,-0.0336 0,-0.018257 0.035686,-0.03313 0.079651,-0.03313"
   id="path9"
   style="fill-rule:evenodd;fill:#000000" />
</svg>