<?xml version="1.0" encoding="UTF-8" standalone="no"?>
<svg
   xmlns:dc="http://purl.org/dc/elements/1.1/"
   xmlns:cc="http://creativecommons.org/ns#"
   xmlns:rdf="http://www.w3.org/1999/02/22-rdf-syntax-ns#"
   xmlns:svg="http://www.w3.org/2000/svg"
   xmlns="http://www.w3.org/2000/svg"
   xmlns:xlink="http://www.w3.org/1999/xlink"
   xmlns:sodipodi="http://sodipodi.sourceforge.net/DTD/sodipodi-0.dtd"
   xmlns:inkscape="http://www.inkscape.org/namespaces/inkscape"
   version="1.1"
   width="1575"
   height="900"
   viewBox="-157.5 0 315 180"
   id="svg2"
   inkscape:version="0.48.2 r9819"
   sodipodi:docname="Flag_of_Iran.svg">
  <metadata
     id="metadata42">
    <rdf:RDF>
      <cc:Work
         rdf:about="">
        <dc:format>image/svg+xml</dc:format>
        <dc:type
           rdf:resource="http://purl.org/dc/dcmitype/StillImage" />
        <dc:title>Flag of Iran</dc:title>
      </cc:Work>
    </rdf:RDF>
  </metadata>
  <defs
     id="defs40" />
  <sodipodi:namedview
     pagecolor="#ffffff"
     bordercolor="#666666"
     borderopacity="1"
     objecttolerance="10"
     gridtolerance="10"
     guidetolerance="10"
     inkscape:pageopacity="0"
     inkscape:pageshadow="2"
     inkscape:window-width="1024"
     inkscape:window-height="716"
     id="namedview38"
     showgrid="false"
     inkscape:zoom="0.28728169"
     inkscape:cx="787.5"
     inkscape:cy="450"
     inkscape:window-x="-8"
     inkscape:window-y="-8"
     inkscape:window-maximized="1"
     inkscape:current-layer="svg2" />
  <title
     id="title4">Flag of Iran</title>
  <rect
     x="-157.5"
     width="315"
     height="180"
     fill="#239f40"
     id="rect6" />
  <rect
     x="-157.5"
     width="315"
     height="60"
     y="60"
     fill="#fff"
     id="rect8" />
  <rect
     x="-157.5"
     width="315"
     height="60"
     y="120"
     fill="#da0000"
     id="rect10" />
  <g
     id="b4">
    <g
       id="b2">
      <g
         id="b"
         transform="translate(0, 55.1)"
         fill="none"
         stroke-linecap="square"
         stroke="#fff">
        <path
           id="p"
           d="M -9,-3 h 12 m -12,4 v -2 h 4 v 2 h 4 v -2 h -2 m 6,2 h -2 v -2 h 4 v -2 m 0,2 v 2 h 4 v -4 m -2,0 v 4 m -14,0 h 0.001"
           transform="scale(1.4)" />
        <path
           id="t"
           d="M -9,2.25 h 8 m 2,0 h 8"
           transform="scale(1.4, 2)" />
        <use
           xlink:href="#p"
           transform="translate(0, 72.6)"
           id="use17" />
        <use
           xlink:href="#t"
           transform="translate(0, 60.8)"
           id="use19" />
      </g>
      <use
         xlink:href="#b"
         transform="translate(28)"
         id="use21" />
    </g>
    <use
       xlink:href="#b2"
       transform="translate(-56)"
       id="use23" />
  </g>
  <use
     xlink:href="#b4"
     transform="translate(112)"
     id="use25" />
  <use
     xlink:href="#b"
     transform="translate(-84)"
     id="use27" />
  <use
     xlink:href="#b2"
     transform="translate(-140)"
     id="use29" />
  <g
     transform="matrix(0.10435863,0,0,0.10435863,-21.795982,68.941383)"
     id="g3041"
     style="fill:#da0000;fill-opacity:1">
    <g
       id="g1343"
       style="fill:#da0000;fill-opacity:1">
      <path
         inkscape:connector-curvature="0"
         id="path1345"
         d="M 296.69434,47.666992 C 296.69434,47.666992 452.69434,169.66895 338.02734,345.00195 C 446.02734,279.00195 455.36133,97.5 296.69434,47.666992 z"
         style="fill:#da0000;fill-opacity:1" />
      <path
         inkscape:connector-curvature="0"
         id="path1347"
         d="M 208.86133,30.333984 C 184.02734,58.333984 141.36133,30.500488 156.02832,0 C 181.69531,45.999512 208.86133,8.8334961 208.86133,8.8334961 C 208.86133,8.8334961 236.02734,45.999512 261.69434,0 C 276.36133,30.500488 233.69531,58.333984 208.86133,30.333984 z"
         style="fill:#da0000;fill-opacity:1" />
      <path
         inkscape:connector-curvature="0"
         id="path1349"
         d="M 208.86133,410.33594 L 191.02832,387.00195 C 191.02832,387.00195 149.0293,401.00195 93.695313,381.66895 C 139.02832,381.66895 164.3623,373.66797 173.69531,369.00195 C 173.69531,369.00195 71.02832,313.66895 73.02832,201.00195 C 79.02832,87.001953 139.69531,52.334961 139.69531,52.334961 C 139.69531,52.334961 31.695313,209.66797 190.36133,341.16602 L 183.36133,178.5 C 183.36133,178.5 183.36133,71.333496 183.36133,59 C 192.36133,56.833008 208.86133,37.833496 208.86133,37.833496 C 208.86133,37.833496 225.36133,56.833008 234.36133,59 C 234.36133,71.333496 234.36133,178.5 234.36133,178.5 L 227.36133,341.16602 C 386.02734,209.66797 278.02734,52.334961 278.02734,52.334961 C 278.02734,52.334961 338.69434,87.001953 344.69434,201.00195 C 346.69434,313.66895 244.02734,369.00195 244.02734,369.00195 C 253.36035,373.66797 278.69434,381.66895 324.02734,381.66895 C 268.69336,401.00195 226.69434,387.00195 226.69434,387.00195 L 208.86133,410.33594 z"
         style="fill:#da0000;fill-opacity:1" />
      <path
         inkscape:connector-curvature="0"
         id="path1351"
         d="M 121.02832,47.666992 C 121.02832,47.666992 -34.97168,169.66895 79.695313,345.00195 C -28.304688,279.00195 -37.638672,97.5 121.02832,47.666992 z"
         style="fill:#da0000;fill-opacity:1" />
    </g>
  </g>
</svg>
