<?xml version="1.0" encoding="UTF-8" standalone="no"?>
<!-- Created with Inkscape (http://www.inkscape.org/) -->

<svg
   xmlns:dc="http://purl.org/dc/elements/1.1/"
   xmlns:cc="http://creativecommons.org/ns#"
   xmlns:rdf="http://www.w3.org/1999/02/22-rdf-syntax-ns#"
   xmlns:svg="http://www.w3.org/2000/svg"
   xmlns="http://www.w3.org/2000/svg"
   xmlns:sodipodi="http://sodipodi.sourceforge.net/DTD/sodipodi-0.dtd"
   xmlns:inkscape="http://www.inkscape.org/namespaces/inkscape"
   version="1.0"
   x="0.00000000"
   y="0.00000000"
   width="900"
   height="450"
   viewBox="-3010 0 6020 3021"
   id="svg2"
   xml:space="preserve"
   sodipodi:version="0.32"
   inkscape:version="0.48.0 r9654"
   sodipodi:docname="Flag_of_New_Caledonia.svg"><metadata
   id="metadata27"><rdf:RDF><cc:Work
       rdf:about=""><dc:format>image/svg+xml</dc:format><dc:type
         rdf:resource="http://purl.org/dc/dcmitype/StillImage" /></cc:Work></rdf:RDF></metadata><sodipodi:namedview
   inkscape:window-height="522"
   inkscape:window-width="708"
   inkscape:pageshadow="2"
   inkscape:pageopacity="0.0"
   borderopacity="1.0"
   bordercolor="#666666"
   pagecolor="#ffffff"
   id="base"
   inkscape:zoom="0.15510422"
   inkscape:cx="321.75839"
   inkscape:cy="225.3207"
   inkscape:window-x="300"
   inkscape:window-y="0"
   inkscape:current-layer="svg2"
   showgrid="false"
   inkscape:window-maximized="1" />
    <defs
   id="defs4">
        <style
   type="text/css"
   id="style6" />
    
        
        
        
    
        
        
    
            
            
            
            
            
            
            
        </defs>
    
    
    
    
    
    
    
<rect
   style="opacity:1;fill:#0037cc;fill-opacity:1;fill-rule:evenodd;stroke:none;stroke-opacity:1"
   id="rect5731"
   width="0"
   height="0"
   x="-609.50171"
   y="3672.1045" /><path
   d="M -3021,3021 L -3021,2014.0002 L 3020.9989,2014.0002 L 3020.9989,3021 L -3021,3021 z "
   style="fill:#009543;fill-opacity:1"
   id="21376952" /><path
   d="M 3020.9989,1007.0007 L -3021,1007.0007 L -3021,2014.0007 L 3020.9989,2014.0007 L 3020.9989,1007.0007 z "
   style="fill:#ed4135;fill-opacity:1"
   id="21375544" /><path
   d="M -3021,1007.0009 C -3021,671 -3021,336.00205 -3021,0.001200002 L 3021,0.001200002 L 3021,1007.0009 L -3021,1007.0009 z "
   style="fill:#0035ad;fill-opacity:1;fill-rule:nonzero"
   id="21377216" /><g
   id="g2275"
   transform="matrix(1.000557,0,0,1.000566,-10.18115,2.746054)"><path
     id="21377304"
     style="fill:#fae600;fill-opacity:1;stroke:#000000;stroke-width:33.82313537999999700;stroke-miterlimit:4;stroke-opacity:1;stroke-dasharray:none"
     d="m -996.25901,517.38494 c 544.43974,0 989.5256826,444.09395 989.5256826,989.52156 0,544.4341 -445.0859426,989.5162 -989.5256826,989.5162 -545.43319,0 -989.53269,-445.0821 -989.53269,-989.5162 0,-545.42761 444.0995,-989.52156 989.53269,-989.52156 z"
     inkscape:connector-curvature="0"
     sodipodi:nodetypes="sssss" /><path
     id="21377480"
     style="fill:none"
     d="m -994.62147,518.99996 c 550.00278,0 999.6400718,446.99993 999.6400718,995.99984 0,548 -449.6372918,995.9999 -999.6400718,995.9999 -551.00643,0 -999.64013,-447.9999 -999.64013,-995.9999 0,-548.99991 448.6337,-995.99984 999.64013,-995.99984 z"
     inkscape:connector-curvature="0" /><path
     d="m -1181.464,1653.9391 354.62904,-3.4098"
     style="fill:#1f1a17;fill-opacity:1;fill-rule:evenodd;stroke:#000000;stroke-width:41.06941986;stroke-linecap:butt;stroke-linejoin:miter;stroke-miterlimit:4;stroke-opacity:1;stroke-dasharray:none"
     id="path9008"
     inkscape:connector-curvature="0" /><path
     d="m -1184.8736,1408.4268 361.44857,0"
     style="fill:#1f1a17;fill-opacity:1;fill-rule:evenodd;stroke:#000000;stroke-width:41.06941986;stroke-linecap:butt;stroke-linejoin:miter;stroke-miterlimit:4;stroke-opacity:1;stroke-dasharray:none"
     id="path9010"
     inkscape:connector-curvature="0" /><path
     d="m -1000.7395,521.00792 3.40987,1681.07738 0,0 -3.40987,-3.4099"
     style="fill:#1f1a17;fill-opacity:1;fill-rule:evenodd;stroke:#000000;stroke-width:41.06941986;stroke-linecap:butt;stroke-linejoin:miter;stroke-miterlimit:4;stroke-opacity:1;stroke-dasharray:none"
     id="path9012"
     inkscape:connector-curvature="0" /><path
     d="m -1394.6907,2415.5084 c 403.85948,164.9212 782.38998,10.1318 782.38998,10.1318 0,0 -142.89003,-154.6427 -216.14226,-215.0167 -71.47252,-58.9073 -281.73372,-56.5737 -353.48262,10e-5 -59.8821,47.217 -231.6214,221.2081 -212.7651,204.8848 z"
     style="fill:#000000;fill-opacity:1;fill-rule:evenodd;stroke:#000000;stroke-width:2.58860493;stroke-linecap:butt;stroke-linejoin:round;stroke-miterlimit:4;stroke-opacity:1;stroke-dasharray:none"
     id="path2438"
     inkscape:connector-curvature="0" /><path
     id="path3166"
     style="fill:#000000;fill-opacity:1;fill-rule:nonzero;stroke:#000000;stroke-width:4.93834686;stroke-linecap:round;stroke-linejoin:round;stroke-miterlimit:4;stroke-opacity:1;stroke-dasharray:none;stroke-dashoffset:0"
     d="m -890.32092,1960.1456 c 0.0537,88.0377 -49.1201,159.4474 -109.79758,159.4474 -60.6774,0 -109.8512,-71.4097 -109.7975,-159.4474 -0.054,-88.0376 49.1201,-159.4473 109.7975,-159.4473 60.67748,0 109.85126,71.4097 109.79758,159.4473 z"
     inkscape:connector-curvature="0" /><path
     id="path3900"
     style="fill:#000000;fill-opacity:1;fill-rule:nonzero;stroke:#000000;stroke-width:0.04038674;stroke-linecap:round;stroke-linejoin:round;stroke-miterlimit:4;stroke-opacity:1;stroke-dasharray:none;stroke-dashoffset:0"
     d="m -867.65452,1531.2391 c 0,46.9316 -60.04787,84.9771 -134.12068,84.9771 -74.0727,0 -134.1206,-38.0455 -134.1206,-84.9771 0,-46.9317 60.0479,-84.9772 134.1206,-84.9772 74.07281,0 134.12068,38.0455 134.12068,84.9772 z"
     inkscape:connector-curvature="0" /><path
     id="path3902"
     style="fill:#000000;fill-opacity:1;fill-rule:nonzero;stroke:#000000;stroke-width:0.10939925;stroke-linecap:round;stroke-linejoin:round;stroke-miterlimit:4;stroke-opacity:1;stroke-dasharray:none;stroke-dashoffset:0"
     d="m -869.47054,1140.606 c 0.0317,71.1987 -59.83775,128.933 -133.70166,128.933 -73.864,0 -133.7335,-57.7343 -133.7017,-128.933 -0.032,-71.1988 59.8377,-128.9331 133.7017,-128.9331 73.86391,0 133.73341,57.7343 133.70166,128.9331 z"
     inkscape:connector-curvature="0" /><path
     id="path6096"
     style="fill:#000000;fill-opacity:1;fill-rule:evenodd;stroke:#000000;stroke-width:3.45147419;stroke-linecap:butt;stroke-linejoin:round;stroke-miterlimit:4;stroke-opacity:1;stroke-dasharray:none"
     d="m -835.28213,637.92856 c 0,0 11.66366,19.35257 -12.79678,63.40207 -116.9242,210.56302 -234.25169,215.11774 -256.51689,233.25006 -24.5408,19.98532 -34.9001,18.61341 -34.9001,18.61341 l 1.7452,-18.03181 c 0,0 1.6259,-73.74724 2.9083,-80.85229 17.7552,-98.38038 166.37062,-97.02984 282.6918,-197.76797 18.17096,-15.73661 16.86847,-18.61347 16.86847,-18.61347 z"
     inkscape:connector-curvature="0" /><path
     id="path9014"
     style="fill:#000000;fill-opacity:1;fill-rule:evenodd;stroke:#000000;stroke-width:2.55778122;stroke-linecap:butt;stroke-linejoin:round;stroke-miterlimit:4;stroke-opacity:1;stroke-dasharray:none"
     d="m -998.69592,1300.8153 c 45.27089,-4.8421 97.82197,-23.3759 114.5441,-50.0601 98.3423,-156.9294 109.43233,-158.1434 109.43233,-158.1434 0,0 -15.0195,40.1117 -25.18533,90.0799 -10.16583,49.9681 -8.56752,90.3845 -20.41066,109.7924 -15.12244,24.7819 -39.20436,50.4797 -70.4756,60.5957 -40.7753,13.1907 -109.1202,15.5939 -109.1202,15.5939 0,0 -2.73542,-67.4356 1.21536,-67.8584 z"
     inkscape:connector-curvature="0" /><path
     id="path11196"
     style="fill:#000000;fill-opacity:1;fill-rule:evenodd;stroke:#000000;stroke-width:2.55778122;stroke-linecap:butt;stroke-linejoin:round;stroke-miterlimit:4;stroke-opacity:1;stroke-dasharray:none"
     d="m -1008.4881,1300.7066 c -44.1903,-4.8453 -95.487,-23.3898 -111.8102,-50.0901 -95.9951,-157.0223 -106.8203,-158.237 -106.8203,-158.237 0,0 14.6611,40.1354 24.5841,90.1331 9.9231,49.9977 8.3629,90.4383 19.9235,109.8575 14.7612,24.7969 38.2684,50.5099 68.7936,60.632 39.8019,13.1985 106.5158,15.603 106.5158,15.603 0,0 2.67,-67.4757 -1.1865,-67.8985 z"
     inkscape:connector-curvature="0" /><g
     id="g11202"
     style="fill:#000000;fill-opacity:1;stroke:#000000;stroke-opacity:1"
     transform="matrix(14.2758,0,0,13.01776,-3251.995,356.0369)">
                <path
   id="path11198"
   style="fill:#000000;fill-opacity:1;fill-rule:evenodd;stroke:#000000;stroke-width:0.18762676;stroke-linecap:butt;stroke-linejoin:round;stroke-miterlimit:4;stroke-opacity:1;stroke-dasharray:none"
   d="m 158.01893,109.81434 c 3.30684,0.5051 7.14547,2.43841 8.36695,5.22192 7.18348,16.36966 7.99356,16.49629 7.99356,16.49629 0,0 -1.09711,-4.18415 -1.83968,-9.39644 -0.74257,-5.21229 -0.62582,-9.42823 -1.49091,-11.45272 -1.10463,-2.58505 -2.86371,-5.26566 -5.14794,-6.32088 -2.97846,-1.37595 -7.97076,-1.62663 -7.97076,-1.62663 0,0 -0.19982,7.03437 0.0888,7.07846 z"
   inkscape:connector-curvature="0" />
                <path
   id="path11200"
   style="fill:#000000;fill-opacity:1;fill-rule:evenodd;stroke:#000000;stroke-width:0.18762678;stroke-linecap:butt;stroke-linejoin:round;stroke-miterlimit:4;stroke-opacity:1;stroke-dasharray:none"
   d="m 157.30365,109.8257 c -3.22791,0.5054 -6.97492,2.43985 -8.16725,5.22501 -7.01203,16.37937 -7.80277,16.50608 -7.80277,16.50608 0,0 1.07093,-4.18663 1.79576,-9.40201 0.72485,-5.21538 0.61089,-9.43383 1.45533,-11.45951 1.07826,-2.58658 2.79535,-5.26878 5.02507,-6.32464 2.90737,-1.37676 7.78052,-1.62758 7.78052,-1.62758 0,0 0.19505,7.03854 -0.0867,7.08265 z"
   inkscape:connector-curvature="0" />
            </g></g></svg>