<?xml version="1.0" encoding="UTF-8" standalone="no"?>
<!-- Created with Inkscape (http://www.inkscape.org/) -->

<svg
   xmlns:dc="http://purl.org/dc/elements/1.1/"
   xmlns:cc="http://creativecommons.org/ns#"
   xmlns:rdf="http://www.w3.org/1999/02/22-rdf-syntax-ns#"
   xmlns:svg="http://www.w3.org/2000/svg"
   xmlns="http://www.w3.org/2000/svg"
   xmlns:sodipodi="http://sodipodi.sourceforge.net/DTD/sodipodi-0.dtd"
   xmlns:inkscape="http://www.inkscape.org/namespaces/inkscape"
   version="1.0"
   width="675"
   height="450"
   id="svg2"
   inkscape:version="0.48.2 r9819"
   sodipodi:docname="AJAX.svg">
  <metadata
     id="metadata95">
    <rdf:RDF>
      <cc:Work
         rdf:about="">
        <dc:format>image/svg+xml</dc:format>
        <dc:type
           rdf:resource="http://purl.org/dc/dcmitype/StillImage" />
      </cc:Work>
    </rdf:RDF>
  </metadata>
  <sodipodi:namedview
     pagecolor="#ffffff"
     bordercolor="#666666"
     borderopacity="1"
     objecttolerance="10"
     gridtolerance="10"
     guidetolerance="10"
     inkscape:pageopacity="0"
     inkscape:pageshadow="2"
     inkscape:window-width="1280"
     inkscape:window-height="1004"
     id="namedview93"
     showgrid="false"
     inkscape:zoom="0.73139468"
     inkscape:cx="127.61291"
     inkscape:cy="255.66131"
     inkscape:window-x="-8"
     inkscape:window-y="-8"
     inkscape:window-maximized="1"
     inkscape:current-layer="svg2" />
  <defs
     id="defs4" />
  <g
     id="layer1">
    <path
       d="M 0,0 L 675,0 L 675,225 L 300,225 L 0,0 z "
       style="fill:#dc171d;fill-opacity:1;fill-rule:evenodd;stroke:none"
       id="path2160" />
    <path
       d="M 0,450 L 675,450 L 675,225 L 300,225 L 0,450 z "
       style="fill:#012a87;fill-opacity:1;fill-rule:evenodd;stroke:none"
       id="path3134" />
    <path
       d="M 0,0 L 300,225 L 0,450 L 0,0 z "
       style="fill:#ffffff;fill-opacity:1;fill-rule:evenodd;stroke:none"
       id="path3136" />
    <g
       transform="matrix(0.3358457,0,0,0.3358462,22.073663,254.82087)"
       id="g3354">
      <path
         d="M -1508.8339,4385.729 L -1508.8339,4385.729 L -1508.8339,4385.729 L -1508.8339,4385.729"
         style="fill:#000000;stroke:none"
         id="path14" />
      <g
         transform="matrix(2.9999964,0,0,2.9994449,-746.32978,-2781.9855)"
         id="g2425">
        <path
           d="M 377.17462,843.10761 L 377.26593,839.64939 C 377.26593,839.64939 375.40929,836.69155 377.56421,833.51334 C 377.56421,833.51334 372.98653,831.09119 374.05181,827.29816 C 374.05181,827.29816 369.91242,826.23957 370.21678,821.68562 C 370.21678,821.68562 365.74867,821.37578 365.28603,817.57119 C 365.28603,817.57119 360.81792,818.30715 358.8517,814.59995 C 358.8517,814.59995 354.49316,815.45218 353.26352,812.39633 C 353.26352,812.39633 349.02672,813.86399 346.51265,810.27185 C 346.51265,810.27185 342.03845,812.07979 340.16355,808.68914 C 338.31299,812.06822 333.83879,810.27185 333.83879,810.27185 C 331.35515,813.85121 327.08792,812.36589 327.08792,812.36589 C 325.90089,815.43392 321.55452,814.56343 321.55452,814.56343 C 319.5944,818.27123 315.13238,817.53405 315.13238,817.53405 C 314.69409,821.32708 310.23206,821.63693 310.23206,821.63693 C 310.58513,826.20244 306.45182,827.23789 306.45182,827.23789 C 307.54145,831.03031 302.96985,833.44638 302.96985,833.44638 C 305.17956,836.64285 303.34118,839.57695 303.34118,839.57695 L 303.2377,842.76611 L 377.1868,843.10761"
           style="fill:#ffff00;stroke:none"
           id="path182" />
        <path
           d="M 377.17462,843.10761 L 377.26593,839.64939 C 377.26593,839.64939 375.40929,836.69155 377.56421,833.51334 C 377.56421,833.51334 372.98653,831.09119 374.05181,827.29816 C 374.05181,827.29816 369.91242,826.23957 370.21678,821.68562 C 370.21678,821.68562 365.74867,821.37578 365.28603,817.57119 C 365.28603,817.57119 360.81792,818.30715 358.8517,814.59995 C 358.8517,814.59995 354.49316,815.45218 353.26352,812.39633 C 353.26352,812.39633 349.02672,813.86399 346.51265,810.27185 C 346.51265,810.27185 342.03845,812.07979 340.16355,808.68914 C 338.31299,812.06822 333.83879,810.27185 333.83879,810.27185 C 331.35515,813.85121 327.08792,812.36589 327.08792,812.36589 C 325.90089,815.43392 321.55452,814.56343 321.55452,814.56343 C 319.5944,818.27123 315.13238,817.53405 315.13238,817.53405 C 314.69409,821.32708 310.23206,821.63693 310.23206,821.63693 C 310.58513,826.20244 306.45182,827.23789 306.45182,827.23789 C 307.54145,831.03031 302.96985,833.44638 302.96985,833.44638 C 305.17956,836.64285 303.34118,839.57695 303.34118,839.57695 L 303.2377,842.76611 L 377.1868,843.10761 L 377.17462,843.10761 z "
           style="fill:#f9d90f;stroke:#000000;stroke-width:0.27124387000000000;fill-opacity:1"
           id="path184" />
        <path
           d="M 375.44582,838.79107 C 363.83116,837.62839 350.45725,834.87082 340.13311,840.68485 C 333.21179,836.60571 323.57552,836.8553 315.36978,837.65335 C 310.91384,838.45079 305.67264,838.45079 301.01582,839.21171 L 300.28533,839.31458 C 291.83609,839.87523 284.17212,837.37881 276.83078,834.09773 C 279.16224,847.33162 281.74936,860.89484 283.02161,874.74965 C 285.79136,895.26949 273.31229,912.49729 278.43175,932.76816 C 281.4876,942.49513 292.18307,948.15028 301.97153,949.27096 C 311.44953,949.83039 321.25624,951.38327 330.02811,953.288 C 331.69605,953.63498 333.67443,954.40868 334.82494,954.90723 C 337.24162,955.91773 339.01304,957.40366 340.56531,958.99245 C 345.8613,953.47671 353.62267,951.9427 361.28056,951.13308 C 375.08057,949.51993 392.09471,950.39712 400.54395,937.89371 L 400.54395,937.18696 C 405.13381,930.27174 404.52508,919.72297 402.53451,911.88795 C 402.40059,909.15473 401.67011,906.74414 401.27443,904.13936 C 392.84346,881.87123 400.06305,856.82788 403.69111,834.38383 C 399.25952,836.8066 394.31659,837.95102 389.38584,839.16301 C 385.45342,839.68652 381.07052,839.44911 377.0894,839.23545 L 375.43973,838.79107"
           style="fill:#dc171d;stroke:none;fill-opacity:1"
           id="path186" />
        <path
           d="M 392.79476,902.69666 C 392.73997,904.1631 393.53133,905.31422 393.81743,906.67109 C 395.43058,916.40476 396.98894,929.29837 386.96916,935.33702 C 375.8841,942.38556 361.34752,939.36684 348.52147,943.09778 C 345.9587,943.81 342.42804,946.16641 340.62618,947.83374 C 339.46959,947.07282 338.3069,945.90405 336.8155,945.21679 C 326.26004,939.60425 312.53917,941.48463 300.62623,938.45313 C 294.64236,936.56058 288.40283,931.89767 286.88708,925.77319 C 282.99118,909.7032 292.32308,896.00666 291.22127,880.0639 C 290.50905,867.8892 288.4637,856.2015 285.65135,844.78772 C 294.96499,849.12739 305.74569,849.85178 316.21592,847.77052 C 323.9712,846.68636 332.99874,846.66262 340.26703,849.9437 C 344.27251,848.22037 348.95976,847.44728 353.27569,846.97247 C 361.48144,847.77052 370.30201,849.25522 378.75125,849.19496 C 384.39422,848.90216 389.51976,847.27075 394.42617,845.09756 C 391.51641,863.96226 385.92823,883.7224 392.78867,902.69666"
           style="fill:#62afe1;stroke:none;fill-opacity:1"
           id="path188" />
        <path
           d="M 376.04238,906.45803 L 375.95107,888.7195 L 378.13642,888.7195 L 351.02337,871.2062 L 350.97468,862.10561 L 353.59224,862.10561 L 340.03571,852.3969 L 326.54615,862.10014 L 329.15762,862.10014 L 329.20632,871.19403 L 302.23937,888.68358 L 304.39429,888.69515 L 304.4856,906.42212 L 376.03629,906.47082"
           style="fill:#ffffff;stroke:none"
           id="path190" />
        <path
           d="M 376.04238,906.45803 L 375.95107,888.7195 L 378.13642,888.7195 L 351.02337,871.2062 L 350.97468,862.10561 L 353.59224,862.10561 L 340.03571,852.3969 L 326.54615,862.10014 L 329.15762,862.10014 L 329.20632,871.19403 L 302.23937,888.68358 L 304.39429,888.69515 L 304.4856,906.42212 L 376.03629,906.47082 L 376.04238,906.45803 z "
           style="fill:none;stroke:#000000;stroke-width:1.16422367;stroke-miterlimit:4;stroke-dasharray:none"
           id="path192" />
        <path
           d="M 384.37595,929.76101 L 384.38204,935.31206 L 297.03469,935.21466 L 296.99817,929.68735 L 384.38204,929.76101"
           style="fill:#ffffff;stroke:none"
           id="path198" />
        <path
           d="M 384.37595,929.76101 L 384.38204,935.31206 L 297.03469,935.21466 L 296.99817,929.68735 L 384.38204,929.76101 L 384.37595,929.76101 z "
           style="fill:none;stroke:#000000;stroke-width:1.16422367;stroke-miterlimit:4;stroke-dasharray:none"
           id="path200" />
        <path
           d="M 302.83593,929.4262 L 302.76288,910.64065 L 306.29941,910.63391 L 306.10484,929.63865 L 306.31781,910.7867 L 301.22279,910.64065 L 301.22279,906.61022 L 379.28693,906.69605 L 379.32346,910.68935 L 374.50836,910.68935 L 374.59967,929.71231 L 374.42923,910.68935 L 378.01468,910.68935 L 378.09381,929.49864"
           style="fill:#ffffff;stroke:none"
           id="path202" />
        <path
           d="M 302.83593,929.4262 L 302.76288,910.64065 L 306.29941,910.63391 L 306.10484,929.63865 L 306.31781,910.7867 L 301.22279,910.64065 L 301.22279,906.61022 L 379.28693,906.69605 L 379.32346,910.68935 L 374.50836,910.68935 L 374.59967,929.71231 L 374.42923,910.68935 L 378.01468,910.68935 L 378.09381,929.49864"
           style="fill:none;stroke:#000000;stroke-width:1.16422367;stroke-miterlimit:4;stroke-dasharray:none"
           id="path204" />
        <path
           d="M 319.61875,924.79982 L 319.56396,911.69985 L 309.08155,911.69985 L 309.14243,924.78704 L 319.61875,924.79982"
           style="fill:none;stroke:#000000;stroke-width:1.16422367;stroke-miterlimit:4;stroke-dasharray:none"
           id="path206" />
        <path
           d="M 311.93652,914.43246 L 311.96695,922.04164 L 316.76378,922.04164 L 316.73944,914.43246 L 311.93652,914.43246"
           style="fill:none;stroke:#000000;stroke-width:1.16422367;stroke-miterlimit:4;stroke-dasharray:none"
           id="path208" />
        <path
           d="M 370.86204,924.83574 L 370.80117,911.74855 L 360.35528,911.73637 L 360.40398,924.83574 L 370.86204,924.83574"
           style="fill:none;stroke:#000000;stroke-width:1.16422367;stroke-miterlimit:4;stroke-dasharray:none"
           id="path210" />
        <path
           d="M 363.17981,914.48116 L 363.2346,922.06599 L 368.02534,922.06599 L 367.98273,914.48116 L 363.17981,914.48116"
           style="fill:none;stroke:#000000;stroke-width:1.16422367;stroke-miterlimit:4;stroke-dasharray:none"
           id="path212" />
        <path
           d="M 370.78291,903.50628 L 370.72203,890.4057 L 360.26397,890.4057 L 360.30049,903.50628 L 370.78899,903.50628 L 370.78291,903.50628 z "
           style="fill:none;stroke:#000000;stroke-width:1.16422367;stroke-miterlimit:4;stroke-dasharray:none"
           id="path214" />
        <path
           d="M 363.10067,893.16326 L 363.13111,900.76027 L 367.92185,900.76027 L 367.91577,893.16326 L 363.10067,893.16326"
           style="fill:none;stroke:#000000;stroke-width:1.16422367;stroke-miterlimit:4;stroke-dasharray:none"
           id="path216" />
        <path
           d="M 319.53353,903.45758 L 319.46048,890.38195 L 308.99633,890.36917 L 309.04503,903.45088 L 319.53353,903.45088 L 319.53353,903.45758 z "
           style="fill:none;stroke:#000000;stroke-width:1.16422367;stroke-miterlimit:4;stroke-dasharray:none"
           id="path218" />
        <path
           d="M 311.8513,893.11457 L 311.87564,900.70001 L 316.67856,900.71158 L 316.64204,893.11457 L 311.8513,893.11457"
           style="fill:none;stroke:#000000;stroke-width:1.16422367;stroke-miterlimit:4;stroke-dasharray:none"
           id="path220" />
        <path
           d="M 338.5017,903.48132 L 338.453,890.4057 L 327.98276,890.39413 L 328.02537,903.48132 L 338.5017,903.48132"
           style="fill:none;stroke:#000000;stroke-width:1.16422367;stroke-miterlimit:4;stroke-dasharray:none"
           id="path222" />
        <path
           d="M 330.82555,893.12674 L 330.8499,900.71158 L 335.64673,900.73593 L 335.6163,893.12674 L 330.82555,893.12674"
           style="fill:none;stroke:#000000;stroke-width:1.16422367;stroke-miterlimit:4;stroke-dasharray:none"
           id="path224" />
        <path
           d="M 353.12351,903.50628 L 353.05046,890.4057 L 342.58631,890.39413 L 342.63501,903.48132 L 353.12351,903.50628"
           style="fill:none;stroke:#000000;stroke-width:1.16422367;stroke-miterlimit:4;stroke-dasharray:none"
           id="path226" />
        <path
           d="M 345.43519,893.13952 L 345.47171,900.74871 L 350.26854,900.74871 L 350.24419,893.13952 L 345.43519,893.13952"
           style="fill:none;stroke:#000000;stroke-width:1.16422367;stroke-miterlimit:4;stroke-dasharray:none"
           id="path228" />
        <path
           d="M 355.71672,899.48802 L 355.83238,929.68735 L 325.49912,929.63865 L 325.38955,899.46428 L 355.71063,899.48802"
           style="fill:#ffffff;stroke:none"
           id="path230" />
        <path
           d="M 355.71672,899.48802 L 355.83238,929.68735 L 325.49912,929.63865 L 325.38955,899.46428 L 355.71063,899.48802 L 355.71672,899.48802 z "
           style="fill:none;stroke:#000000;stroke-width:1.16422367;stroke-miterlimit:4;stroke-dasharray:none"
           id="path232" />
        <path
           d="M 325.20693,908.1077 L 355.74716,908.13205"
           style="fill:none;stroke:#000000;stroke-width:1.16422367;stroke-miterlimit:4;stroke-dasharray:none"
           id="path234" />
        <path
           d="M 329.01761,929.67518 L 328.91413,908.33294"
           style="fill:none;stroke:#000000;stroke-width:1.16422367;stroke-miterlimit:4;stroke-dasharray:none"
           id="path236" />
        <path
           d="M 352.14345,929.68735 L 352.03996,908.35789"
           style="fill:none;stroke:#000000;stroke-width:1.16422367;stroke-miterlimit:4;stroke-dasharray:none"
           id="path238" />
        <path
           d="M 366.78961,886.62606 L 349.70851,874.15248 L 330.5151,874.12813 L 313.56793,886.57736 L 366.78961,886.62606"
           style="fill:none;stroke:#000000;stroke-width:1.16422367;stroke-miterlimit:4;stroke-dasharray:none"
           id="path240" />
        <path
           d="M 331.99433,863.79851 L 332.02476,871.40769 L 348.16841,871.41987 L 348.13797,863.81068 L 331.99433,863.79851"
           style="fill:none;stroke:#000000;stroke-width:1.16422367;stroke-miterlimit:4;stroke-dasharray:none;stroke-opacity:1"
           id="path242" />
        <path
           d="M 336.37113,865.68558 L 336.39548,869.47739 L 343.80987,869.47739 L 343.78552,865.68558 L 336.37113,865.68558"
           style="fill:none;stroke:#000000;stroke-width:1.16422367;stroke-miterlimit:4;stroke-dasharray:none"
           id="path244" />
        <path
           d="M 340.03571,855.1423 L 349.01455,861.49079 L 331.12383,861.46705 L 340.03571,855.1423"
           style="fill:none;stroke:#000000;stroke-width:1.16422367;stroke-miterlimit:4;stroke-dasharray:none"
           id="path246" />
        <path
           d="M 376.34066,850.83793 C 378.89125,850.77706 379.54869,861.3447 379.55478,866.57982 C 381.74622,867.19464 386.60392,870.2511 388.75276,873.01414 L 364.11117,872.97762 C 366.22957,870.2511 371.05075,867.18246 373.22393,866.56825 C 373.22393,861.32643 373.75962,850.76549 376.34066,850.82637"
           style="fill:#ffffff;stroke:none"
           id="path248" />
        <path
           d="M 376.34066,850.83793 C 378.89125,850.77706 379.54869,861.3447 379.55478,866.57982 C 381.74622,867.19464 386.60392,870.2511 388.75276,873.01414 L 364.11117,872.97762 C 366.22957,870.2511 371.05075,867.18246 373.22393,866.56825 C 373.22393,861.32643 373.75962,850.76549 376.34066,850.82637"
           style="fill:none;stroke:#000000;stroke-width:1.16422367;stroke-miterlimit:4;stroke-dasharray:none"
           id="path250" />
        <path
           d="M 326.8079,900.33477 L 329.01761,900.33477 L 328.37235,901.52119 C 328.37235,901.52119 329.43764,902.89146 328.39062,904.46138 L 328.96891,905.55163 L 326.83834,905.55163 L 327.41664,904.51617 C 327.41664,904.51617 326.327,902.69666 327.46534,901.52119 L 326.8079,900.33477"
           style="fill:none;stroke:#000000;stroke-width:1.16422367;stroke-miterlimit:4;stroke-dasharray:none"
           id="path252" />
        <path
           d="M 331.31254,900.33477 L 333.52225,900.33477 L 332.88308,901.52119 C 332.88308,901.52119 333.94836,902.85493 332.88917,904.46138 L 333.46138,905.55163 L 331.33689,905.55163 L 331.9091,904.51617 C 331.9091,904.51617 330.84382,902.69666 331.96389,901.52119 L 331.31254,900.33477"
           style="fill:none;stroke:#000000;stroke-width:1.16422367;stroke-miterlimit:4;stroke-dasharray:none"
           id="path254" />
        <path
           d="M 336.22503,900.33477 L 338.42865,900.33477 L 337.77122,901.52119 C 337.77122,901.52119 338.84868,902.89146 337.78948,904.46138 L 338.36778,905.57537 L 336.25547,905.55163 L 336.82159,904.51617 C 336.82159,904.51617 335.74413,902.70823 336.8642,901.52119 L 336.21894,900.33477 L 336.22503,900.33477 z "
           style="fill:none;stroke:#000000;stroke-width:1.16422367;stroke-miterlimit:4;stroke-dasharray:none"
           id="path256" />
        <path
           d="M 341.77061,900.34633 L 343.99249,900.34633 L 343.34114,901.54554 C 343.34114,901.54554 344.40643,902.89146 343.34723,904.46747 L 343.94379,905.57537 L 341.80104,905.57537 L 342.37325,904.54052 C 342.37325,904.54052 341.30797,902.70823 342.4463,901.54554 L 341.77669,900.34633 L 341.77061,900.34633 z "
           style="fill:none;stroke:#000000;stroke-width:1.16422367;stroke-miterlimit:4;stroke-dasharray:none"
           id="path258" />
        <path
           d="M 346.70136,900.34633 L 348.90498,900.34633 L 348.25363,901.54554 C 348.25363,901.54554 349.325,902.89146 348.26581,904.46138 L 348.85019,905.57537 L 346.72571,905.57537 L 347.27966,904.54052 C 347.27966,904.54052 346.20828,902.7204 347.36488,901.54554 L 346.70136,900.34633"
           style="fill:none;stroke:#000000;stroke-width:1.16422367;stroke-miterlimit:4;stroke-dasharray:none"
           id="path260" />
        <path
           d="M 351.60167,900.35851 L 353.80529,900.34633 L 353.15395,901.54554 C 353.15395,901.54554 354.24358,902.89146 353.18438,904.46747 L 353.73833,905.57537 L 351.60776,905.57537 L 352.17997,904.54052 C 352.17997,904.54052 351.11469,902.7204 352.25302,901.54554 L 351.60167,900.35851"
           style="fill:none;stroke:#000000;stroke-width:1.16422367;stroke-miterlimit:4;stroke-dasharray:none"
           id="path262" />
        <path
           d="M 340.69923,968.3968 C 352.05822,968.43332 366.02869,966.11404 372.57259,962.73009 L 386.94482,961.45722 L 387.23092,978.99548 C 375.05622,985.70922 346.94485,987.15192 340.76011,987.10322 C 334.56927,987.15192 306.11093,985.68548 293.88144,978.94678 L 294.03971,961.39635 L 308.44238,962.69295 C 314.98628,966.05987 329.38285,968.3968 340.72967,968.3968 L 340.69923,968.3968"
           style="fill:#f9d90f;stroke:none;fill-opacity:1"
           id="path264" />
        <path
           d="M 340.69923,968.3968 C 352.05822,968.43332 366.02869,966.11404 372.57259,962.73009 L 386.94482,961.45722 L 387.23092,978.99548 C 375.05622,985.70922 346.94485,987.15192 340.76011,987.10322 C 334.56927,987.15192 306.11093,985.68548 293.88144,978.94678 L 294.03971,961.39635 L 308.44238,962.69295 C 314.98628,966.05987 329.38285,968.3968 340.72967,968.3968 L 340.69923,968.3968"
           style="fill:none;stroke:#000000;stroke-width:0.27124387"
           id="path266" />
        <path
           d="M 256.88254,893.58938 L 269.54423,897.6192 L 265.71528,918.122 L 253.72929,919.98412 C 253.72929,919.98412 251.70829,909.20343 256.88254,893.5772"
           style="fill:#f9d90f;stroke:none;fill-opacity:1"
           id="path268" />
        <path
           d="M 256.88254,893.58938 L 269.54423,897.6192 L 265.71528,918.122 L 253.72929,919.98412 C 253.72929,919.98412 251.70829,909.20343 256.88254,893.5772 L 256.88254,893.58938 z "
           style="fill:none;stroke:#000000;stroke-width:0.27124387"
           id="path270" />
        <path
           d="M 265.7092,917.89616 L 253.72929,919.98412 L 261.30804,909.20343 L 265.7092,917.89616"
           style="fill:#7e7e7e;stroke:none"
           id="path272" />
        <path
           d="M 265.7092,917.89616 L 253.72929,919.98412 L 261.30804,909.20343 L 265.7092,917.89616"
           style="fill:#f9b60f;stroke:#000000;stroke-width:0.27124387000000000;fill-opacity:1"
           id="path274" />
        <path
           d="M 249.30988,908.35789 L 261.51501,909.23995 C 261.78895,919.58296 263.04294,959.05333 310.17119,961.19607 L 308.70414,975.55613 C 251.33696,976.15208 246.97842,927.14345 249.30988,908.35789"
           style="fill:#f9d90f;stroke:none;fill-opacity:1"
           id="path276" />
        <path
           d="M 249.30988,908.35789 L 261.51501,909.23995 C 261.78895,919.58296 263.04294,959.05333 310.17119,961.19607 L 308.70414,975.55613 C 251.33696,976.15208 246.97842,927.14345 249.30988,908.35789 z "
           style="fill:none;stroke:#000000;stroke-width:0.27124387"
           id="path278" />
        <path
           d="M 294.10668,978.49571 L 308.49108,975.35464"
           style="fill:none;stroke:#000000;stroke-width:0.27124387"
           id="path280" />
        <path
           d="M 423.5176,893.73547 L 410.90462,897.72878 L 414.904,918.20114 L 426.91434,920.13022 C 426.91434,920.13022 428.84403,909.35622 423.5176,893.72391"
           style="fill:#ffff00;stroke:none"
           id="path282" />
        <path
           d="M 423.5176,893.73547 L 410.90462,897.72878 L 414.904,918.20114 L 426.91434,920.13022 C 426.91434,920.13022 428.84403,909.35622 423.5176,893.72391 L 423.5176,893.73547 z "
           style="fill:#f9d90f;stroke:#000000;stroke-width:0.27124387000000000;fill-opacity:1"
           id="path284" />
        <path
           d="M 414.904,917.98747 L 426.91434,920.14239 L 419.23211,909.35622 L 414.904,917.98747"
           style="fill:#7e7e7e;stroke:none"
           id="path286" />
        <path
           d="M 414.904,917.98747 L 426.91434,920.14239 L 419.23211,909.35622 L 414.904,917.98747"
           style="fill:#f9b60f;stroke:#000000;stroke-width:0.27124387000000000;fill-opacity:1"
           id="path288" />
        <path
           d="M 431.23027,908.52164 L 419.00688,909.35622 C 418.83034,919.68584 417.92942,959.17447 370.80117,961.26851 L 372.40214,975.617 C 429.75713,976.27991 433.70174,927.29502 431.23027,908.51616"
           style="fill:#f9d90f;stroke:none;fill-opacity:1"
           id="path290" />
        <path
           d="M 431.23027,908.52164 L 419.00688,909.35622 C 418.83034,919.68584 417.92942,959.17447 370.80117,961.26851 L 372.40214,975.617 C 429.75713,976.27991 433.70174,927.29502 431.23027,908.51616 L 431.23027,908.52164 z "
           style="fill:none;stroke:#000000;stroke-width:0.27124387"
           id="path292" />
        <path
           d="M 387.03613,978.57484 L 372.6152,975.41612"
           style="fill:none;stroke:#000000;stroke-width:0.27124387"
           id="path294" />
        <path
           d="M 333.07179,977.04083 C 332.74916,977.2478 332.31087,977.3032 331.80562,977.27824 L 329.52895,977.16258 L 329.72374,974.3204 L 331.98215,974.44153 C 332.42653,974.47197 332.77959,974.5578 332.99874,974.69112 C 333.45529,974.92852 333.65617,975.36742 333.61356,975.97555 C 333.58312,976.49906 333.4005,976.84056 333.0657,977.04083 M 329.24284,981.51564 L 329.46808,978.05133 L 332.12216,978.23456 C 332.98048,978.30152 333.61965,978.07629 334.05185,977.63739 C 334.50231,977.21128 334.73363,976.65185 334.76407,976.01877 C 334.81885,975.28159 334.63015,974.67894 334.19186,974.23456 C 333.77183,973.80845 333.17527,973.58322 332.42653,973.51078 L 328.63411,973.27337 L 328.1106,981.42981 L 329.23676,981.50347"
           style="fill:#012a87;stroke:none;fill-opacity:1"
           id="path296" />
        <path
           d="M 337.49729,974.69112 L 340.27312,974.72155 C 340.67488,974.75808 340.99143,974.80678 341.22274,974.91635 C 341.64886,975.11723 341.84974,975.519 341.84974,976.10338 C 341.84974,976.65185 341.69147,977.01709 341.38102,977.23624 C 341.08274,977.43651 340.65053,977.52782 340.13311,977.52782 L 337.46685,977.49738 L 337.4912,974.69112 M 337.44859,981.9168 L 337.47294,978.43483 L 340.07832,978.47197 C 340.54096,978.47197 340.88185,978.50788 341.11926,978.62354 C 341.50276,978.80008 341.69147,979.17201 341.70973,979.68274 L 341.77669,981.05239 C 341.79496,981.38111 341.80104,981.5826 341.8193,981.71592 C 341.85583,981.81331 341.87409,981.9168 341.92279,981.99045 L 343.32288,981.99045 L 343.29853,981.81331 C 343.14026,981.72809 343.01242,981.56434 342.95764,981.31415 C 342.90894,981.15588 342.88459,980.91847 342.87242,980.62019 L 342.84807,979.53056 C 342.8298,979.03748 342.74458,978.6972 342.55587,978.50788 C 342.39152,978.28874 342.16628,978.10003 341.8193,977.98437 C 342.2089,977.77801 342.50109,977.5406 342.71414,977.2478 C 342.91503,976.92517 343.01851,976.51732 343.01851,976.01877 C 343.01851,975.08131 342.63501,974.44153 341.85583,974.09516 C 341.4358,973.90646 340.90012,973.80845 340.26703,973.79688 L 336.35287,973.75975 L 336.32243,981.94115 L 337.44859,981.94115"
           style="fill:#012a87;stroke:none;fill-opacity:1"
           id="path298" />
        <path
           d="M 346.13523,980.20625 C 345.63607,979.59813 345.36823,978.83721 345.30736,977.93628 C 345.25257,976.80343 345.47171,975.93963 345.98914,975.35464 C 346.51265,974.72155 347.18835,974.41779 348.07101,974.3691 C 348.95976,974.3204 349.69025,974.6065 350.23202,975.16593 C 350.78597,975.7144 351.10251,976.47532 351.1573,977.42494 C 351.18773,978.33744 351.02946,979.14705 350.60944,979.85927 C 350.1955,980.58428 349.50763,980.99213 348.49104,981.01587 C 347.43184,981.07127 346.64048,980.82168 346.13523,980.20625 M 344.79602,975.05636 C 344.27251,975.86597 344.05945,976.80343 344.11423,977.93628 C 344.19337,979.15923 344.57079,980.17034 345.28301,980.93126 C 346.07436,981.69217 347.12138,982.07507 348.4119,982.00202 C 349.79373,981.94115 350.83467,981.41764 351.5408,980.45644 C 352.11301,979.58595 352.38694,978.57484 352.32607,977.32694 C 352.24693,976.21295 351.9243,975.30594 351.32165,974.63024 C 350.56074,973.72323 349.44675,973.32207 347.93709,973.38294 C 346.51265,973.47365 345.46563,973.99716 344.78993,975.05636"
           style="fill:#012a87;stroke:none;fill-opacity:1"
           id="path300" />
        <path
           d="M 383.23762,963.28951 C 384.02289,963.15559 384.70467,963.19272 385.32558,963.40517 C 386.23868,963.69128 386.85351,964.36758 387.23701,965.40182 L 386.11085,965.56009 C 385.86735,965.00067 385.52038,964.61716 385.05165,964.4035 C 384.5951,964.20322 384.02289,964.15392 383.36545,964.25192 C 382.59845,964.36758 381.98363,964.75048 381.55143,965.36591 C 381.12531,966.02273 380.99748,966.89992 381.18618,968.01938 C 381.34446,968.94527 381.68535,969.72993 382.24538,970.25344 C 382.76281,970.78913 383.52373,970.97783 384.51596,970.83782 C 385.25862,970.71608 385.85518,970.41841 386.27521,969.90646 C 386.7135,969.42008 386.84133,968.6829 386.69523,967.73328 L 384.07159,968.13565 L 383.93767,967.23472 L 387.59007,966.67408 L 388.30229,971.00218 L 387.5779,971.11176 L 387.12744,970.11343 C 386.82307,970.5645 386.5187,970.91148 386.25086,971.11176 C 385.80039,971.46543 385.19166,971.69066 384.43074,971.80023 C 383.44459,971.95181 382.54366,971.77528 381.72796,971.25176 C 380.83312,970.58824 380.25482,969.60209 380.03568,968.23305 C 379.79827,966.88774 380.01133,965.73663 380.63224,964.82961 C 381.22271,963.95364 382.08102,963.44231 383.23762,963.27734"
           style="fill:#012a87;stroke:none;fill-opacity:1"
           id="path302" />
        <path
           d="M 391.49815,962.65643 L 394.11571,961.7068 C 394.47486,961.57349 394.78532,961.53027 395.05316,961.56132 C 395.53406,961.59723 395.88713,961.88334 396.08801,962.45555 C 396.27672,962.94253 396.27672,963.36865 396.06366,963.66754 C 395.83843,963.97738 395.48536,964.20322 394.97403,964.39132 L 392.51474,965.27399 L 391.49815,962.65643 M 394.11571,969.42008 L 392.83737,966.139 L 395.27231,965.26181 C 395.72886,965.11572 396.0454,965.03658 396.28281,965.06154 C 396.71501,965.11572 397.04373,965.37808 397.26287,965.87664 L 397.81682,967.12515 C 397.93857,967.435 398.03596,967.6237 398.1151,967.70954 C 398.15162,967.81911 398.23076,967.88607 398.29163,967.95851 L 399.61259,967.47213 L 399.53954,967.2956 C 399.34474,967.2956 399.15604,967.18602 399.01603,966.97236 C 398.91254,966.82078 398.81514,966.60164 398.67514,966.34597 L 398.24293,965.32269 C 398.04814,964.87831 397.84726,964.60499 397.61594,964.44002 C 397.38462,964.31219 397.09242,964.22696 396.74545,964.20322 C 397.01329,963.89216 397.20808,963.58171 397.28113,963.21646 C 397.36027,962.84575 397.32374,962.43181 397.14721,961.96917 C 396.81241,961.09868 396.19758,960.62386 395.33318,960.56299 C 394.87663,960.52647 394.35312,960.62386 393.75047,960.83631 L 390.07371,962.1457 L 393.04434,969.8395 L 394.1218,969.44382"
           style="fill:#012a87;stroke:none;fill-opacity:1"
           id="path304" />
        <path
           d="M 403.69111,965.36591 L 399.02211,958.55356 L 404.14766,955.28465 L 404.71378,956.10705 L 400.51351,958.79096 L 401.95013,960.87284 L 405.82777,958.37702 L 406.35737,959.17447 L 402.47973,961.67089 L 404.06244,963.96582 L 408.33576,961.23199 L 408.90188,962.03613 L 403.68502,965.36591"
           style="fill:#012a87;stroke:none;fill-opacity:1"
           id="path306" />
        <path
           d="M 407.77572,953.32452 L 409.11494,951.85139 C 409.73585,951.19395 410.39328,950.89567 411.11159,950.9809 C 411.82989,951.04177 412.56038,951.41918 413.33956,952.10097 C 413.55261,952.26533 413.74132,952.47838 413.93612,952.71579 C 414.27701,953.16017 414.47789,953.55037 414.60572,953.93935 C 414.7153,954.42694 414.69095,954.87132 414.5205,955.29743 C 414.41702,955.50988 414.2344,955.75946 413.96047,956.05835 L 412.61516,957.51932 L 407.77572,953.31296 M 414.84922,956.52038 C 415.79885,955.47397 416.00581,954.34781 415.45187,953.07555 C 415.12924,952.38707 414.63616,951.71746 413.95438,951.13308 C 413.09606,950.37216 412.20122,949.98257 411.25768,949.91013 C 410.21066,949.83039 409.32191,950.20841 408.54881,951.05394 L 406.26606,953.50106 L 412.56038,958.99245 L 414.84313,956.53317"
           style="fill:#012a87;stroke:none;fill-opacity:1"
           id="path308" />
        <path
           d="M 419.72518,950.17128 L 412.48124,945.91622 L 413.07171,944.97938 L 420.32783,949.21009 L 419.73127,950.18345"
           style="fill:#012a87;stroke:none;fill-opacity:1"
           id="path310" />
        <path
           d="M 422.56798,945.22896 L 414.74573,942.09945 L 417.05284,936.59649 L 418.00246,936.96173 L 416.12147,941.49681 L 418.47728,942.42269 L 420.23652,938.24616 L 421.13745,938.6181 L 419.39647,942.78793 L 422.03229,943.8587 L 423.96198,939.26945 L 424.9116,939.62799 L 422.56189,945.22896"
           style="fill:#012a87;stroke:none;fill-opacity:1"
           id="path312" />
        <path
           d="M 426.15951,935.62313 L 417.92942,933.80301 L 418.20335,932.53075 L 425.80645,929.96189 L 419.12862,928.48875 L 419.37212,927.49043 L 427.60221,929.26124 L 427.34046,930.49697 L 419.72518,933.12123 L 426.40301,934.56393 L 426.1656,935.62313"
           style="fill:#012a87;stroke:none;fill-opacity:1"
           id="path314" />
        <path
           d="M 425.50817,925.17054 L 425.61165,924.13569 C 426.08646,924.14847 426.48823,924.07482 426.7926,923.91107 C 427.38916,923.58783 427.73613,922.97362 427.82744,922.06599 C 427.86397,921.64049 427.84571,921.26855 427.74831,920.91548 C 427.57178,920.23431 427.18827,919.85629 426.57345,919.79541 C 426.1169,919.74671 425.78818,919.85629 425.55078,920.10648 C 425.33772,920.39258 425.11249,920.80591 424.94204,921.39091 L 424.56463,922.46837 C 424.32113,923.17389 424.0959,923.66088 423.85241,923.93481 C 423.46282,924.44675 422.91495,924.62329 422.21491,924.57459 C 421.46617,924.49545 420.85743,924.19717 420.42523,923.62496 C 419.98085,923.10145 419.79823,922.35271 419.9078,921.42682 C 419.98085,920.58129 420.26087,919.86907 420.76003,919.29686 C 421.22267,918.77335 421.94098,918.52316 422.86017,918.62055 L 422.77495,919.6554 C 422.32448,919.6554 421.96533,919.73454 421.70357,919.91716 C 421.22876,920.17891 420.967,920.73286 420.88787,921.54248 C 420.82091,922.2127 420.91222,922.66255 421.16789,923.00405 C 421.42355,923.29016 421.74618,923.47217 422.1236,923.50261 C 422.52536,923.53913 422.84191,923.4113 423.06105,923.10145 C 423.21932,922.88778 423.40803,922.42515 423.6637,921.6764 L 424.03503,920.54416 C 424.21765,920.02064 424.43679,919.61888 424.69246,919.33277 C 425.14901,918.85796 425.74557,918.65708 426.49432,918.71247 C 427.40742,918.80926 428.05876,919.18729 428.39357,919.88124 C 428.72228,920.58129 428.85012,921.35438 428.77098,922.23096 C 428.6675,923.22259 428.34487,924.00238 427.74831,924.52589 C 427.15175,925.06097 426.40909,925.24359 425.50817,925.17054"
           style="fill:#012a87;stroke:none;fill-opacity:1"
           id="path316" />
        <path
           d="M 254.89807,924.67199 L 255.08677,925.69405 C 254.63022,925.78536 254.26498,925.96859 253.99714,926.206 C 253.51623,926.65585 253.35188,927.33216 253.51623,928.25135 C 253.58928,928.64033 253.72929,929.02383 253.90582,929.32881 C 254.27107,929.94972 254.74588,930.19869 255.34853,930.10129 C 255.79291,930.02216 256.0851,929.85232 256.22511,929.53578 C 256.35903,929.22471 256.45643,928.7499 256.48687,928.14177 L 256.54165,926.99066 C 256.57818,926.27844 256.65731,925.71901 256.81558,925.40795 C 257.06516,924.84791 257.53389,924.50093 258.23393,924.38588 C 258.98268,924.25135 259.64011,924.4218 260.20623,924.84791 C 260.77845,925.24359 261.15586,925.93146 261.29587,926.84456 C 261.4724,927.67914 261.39327,928.42788 261.06455,929.10297 C 260.74801,929.76101 260.13927,930.16217 259.20791,930.33261 L 259.02529,929.29837 C 259.45749,929.1401 259.78012,928.98731 259.99318,928.77486 C 260.35842,928.3664 260.46799,927.77653 260.32798,926.96692 C 260.21841,926.30887 259.99318,925.88276 259.65229,925.67031 C 259.31748,925.42012 258.98268,925.32272 258.61744,925.38421 C 258.20958,925.44508 257.94174,925.67031 257.81391,926.03555 C 257.73477,926.27844 257.6739,926.78369 257.61911,927.55739 L 257.56433,928.7499 C 257.53389,929.30994 257.44867,929.77318 257.25996,930.08973 C 256.96168,930.6735 256.45643,931.03266 255.71986,931.14832 C 254.78849,931.30659 254.07018,931.09353 253.55885,930.49697 C 253.03533,929.91258 252.71271,929.21254 252.54835,928.34205 C 252.36573,927.3072 252.49965,926.50367 252.91359,925.85902 C 253.33361,925.1955 253.99714,924.812 254.89807,924.68416"
           style="fill:#012a87;stroke:none;fill-opacity:1"
           id="path318" />
        <path
           d="M 254.38064,935.46485 L 262.42812,933.04209 L 264.30302,938.7088 L 263.32296,939.01926 L 261.78895,934.36244 L 259.34183,935.09961 L 260.76018,939.40276 L 259.82273,939.70104 L 258.41655,935.38572 L 255.68942,936.20081 L 257.24778,940.96112 L 256.28598,941.23566 L 254.38064,935.46485"
           style="fill:#012a87;stroke:none;fill-opacity:1"
           id="path320" />
        <path
           d="M 257.94783,945.28923 L 265.35004,941.36349 L 266.1414,942.74471 L 261.05238,948.12593 L 268.48503,946.85367 L 269.25203,948.22394 L 261.86808,952.12593 L 261.34457,951.2183 L 265.70311,948.92398 C 265.86138,948.83206 266.10487,948.69814 266.45794,948.51004 C 266.80492,948.35177 267.19451,948.1381 267.5841,947.93722 L 260.18189,949.1973 L 259.64011,948.2355 L 264.69261,942.87255 L 264.44912,942.9949 C 264.29085,943.08561 264.01691,943.22014 263.64559,943.43258 C 263.28035,943.65842 263.00641,943.79782 262.82988,943.87087 L 258.48352,946.20233 L 257.94783,945.27766"
           style="fill:#012a87;stroke:none;fill-opacity:1"
           id="path322" />
        <path
           d="M 271.74176,956.19167 C 271.37043,956.10705 271.00519,955.89339 270.64604,955.52206 L 269.08159,953.90891 L 271.18781,951.97922 L 272.76443,953.58689 C 273.0688,953.88517 273.2636,954.17675 273.36708,954.42694 C 273.51318,954.90723 273.36708,955.34613 272.9227,955.75946 C 272.52094,956.13079 272.11917,956.28298 271.74176,956.19167 M 265.79442,956.94041 L 268.37546,954.57243 L 270.20775,956.42907 C 270.79822,957.03172 271.40087,957.30565 272.03395,957.29408 C 272.67921,957.25695 273.23316,957.01954 273.72015,956.55691 C 274.26801,956.06992 274.52976,955.49771 274.52976,954.88349 C 274.52368,954.28633 274.24975,953.7269 273.7445,953.20339 L 271.11476,950.51826 L 264.99089,956.14297 L 265.78225,956.94041"
           style="fill:#012a87;stroke:none;fill-opacity:1"
           id="path324" />
        <path
           d="M 273.17837,963.51475 L 277.61605,956.55691 L 282.86334,959.74668 L 282.31548,960.57516 L 278.00564,957.99413 L 276.67251,960.10035 L 280.63537,962.50425 L 280.12404,963.3023 L 276.15509,960.90997 L 274.64542,963.26516 L 279.01005,965.88942 L 278.48654,966.71121 L 273.17837,963.51475"
           style="fill:#012a87;stroke:none;fill-opacity:1"
           id="path326" />
        <path
           d="M 286.31487,962.16944 L 288.98113,963.01619 C 289.35854,963.13124 289.63247,963.27734 289.8151,963.44231 C 290.15599,963.76494 290.2473,964.22696 290.04641,964.787 C 289.88206,965.27399 289.63247,965.59053 289.24288,965.72506 C 288.89591,965.78533 288.45762,965.78533 287.94628,965.62705 L 285.4322,964.82413 L 286.31487,962.16944 M 284.01385,969.00553 L 285.12175,965.68793 L 287.60539,966.49755 C 288.04976,966.61381 288.37239,966.77208 288.53066,966.93583 C 288.83503,967.20977 288.92634,967.61762 288.77416,968.12348 L 288.40283,969.44382 C 288.31761,969.76645 288.275,969.97951 288.23847,970.07691 C 288.23847,970.181 288.23847,970.29057 288.25673,970.36301 L 289.56551,970.78913 L 289.64465,970.60042 C 289.50464,970.49085 289.42551,970.29057 289.43159,970.04099 C 289.46203,969.8882 289.50464,969.64531 289.58986,969.36469 L 289.90641,968.30549 C 290.03424,967.84285 290.08294,967.49587 289.96728,967.2469 C 289.86988,966.98453 289.70552,966.74713 289.43159,966.5225 C 289.84553,966.44885 290.20469,966.32101 290.50905,966.09578 C 290.79516,965.8462 291.03865,965.49922 291.18475,965.01284 C 291.48303,964.12957 291.31867,963.393 290.66124,962.83296 C 290.33252,962.54138 289.86379,962.29119 289.24897,962.05987 L 285.52351,960.90997 L 282.91813,968.67073 L 284.00777,969.00553"
           style="fill:#012a87;stroke:none;fill-opacity:1"
           id="path328" />
        <path
           d="M 295.31806,827.76141 C 296.27986,825.44152 305.19174,819.11676 334.43535,821.88651 C 334.43535,821.88651 339.37828,824.90583 342.28194,824.51685 C 343.9377,824.30318 341.30797,824.61973 339.14696,822.82396 C 336.94334,821.0288 336.47461,817.34595 341.50885,817.44335 C 346.51874,817.57119 365.27386,818.63038 365.62692,820.31597 C 365.95564,822.02043 355.71063,822.73265 351.89995,822.63525 C 348.07101,822.53237 348.51539,824.46815 352.32607,824.32205 C 364.23292,823.89594 377.22941,819.70115 390.95638,829.41108 C 392.59387,830.59141 386.81698,830.78012 382.34887,828.88087 C 382.34887,828.88087 370.24113,829.50847 365.00601,828.65016 C 365.00601,828.65016 360.98228,831.92454 355.74107,831.60252 C 356.42285,833.30028 353.80529,839.63782 337.32684,834.87082 C 334.6058,835.7054 324.68951,837.36663 325.77306,834.42096 C 323.16158,834.42096 318.5839,835.26102 317.90212,833.7751 C 317.24469,832.31474 325.96176,830.10443 327.48969,828.52232 C 327.48969,828.52232 309.05111,828.69886 305.55698,827.42599 C 305.55698,827.42599 294.67889,829.86702 295.31806,827.74923"
           style="fill:#bc715f;stroke:none"
           id="path330" />
        <path
           d="M 301.22887,853.58333 C 301.62455,853.04825 301.78282,852.08584 302.62288,852.1108 C 304.44908,852.59718 305.6909,855.93913 307.93713,853.77204 C 308.73457,853.5955 309.03894,854.67966 309.69637,854.80749 C 310.1164,856.66413 311.6078,854.43008 312.72179,854.5573 C 315.10194,853.4981 318.04822,853.24852 320.86665,853.77204 C 320.95188,855.59215 319.52744,857.60098 317.73776,858.63583 C 317.77428,860.46873 319.43613,861.64358 319.40569,863.48744 C 319.11959,864.17592 319.357,865.25886 318.31606,865.48409 C 316.9951,865.24669 315.69241,865.10668 314.59669,864.37011 C 314.46277,864.23619 314.3532,863.97443 314.07318,864.05965 C 313.93926,864.67448 314.90106,865.28382 315.27847,865.91021 C 314.61495,867.04245 313.51314,866.0076 312.58786,866.01978 C 312.31393,866.67113 312.57569,867.49292 311.90608,867.91294 C 310.73731,867.87642 310.4999,866.60477 309.7816,865.97108 C 309.04503,866.76852 310.29902,867.24334 310.47555,867.87642 C 310.02509,870.27484 310.08596,872.61846 307.68755,874.189 L 306.08049,874.98705 C 305.6422,873.78176 305.91613,871.95494 305.62394,870.69486 C 304.67431,872.24105 303.93166,873.59305 302.53765,874.90122 C 300.90624,874.36553 299.95662,872.44193 299.59746,870.84705 C 298.91568,868.99041 299.30527,866.76852 300.77232,865.42322 C 300.27316,864.44924 298.56261,864.67448 298.31912,863.28717 C 295.75635,861.61863 294.33799,866.2091 292.68224,863.82225 C 292.14655,861.59489 292.78572,858.82453 294.39887,857.16269 C 294.03971,856.25019 292.84659,856.4876 292.14046,855.96409 C 290.52732,854.59383 288.20195,853.14565 288.31761,850.67358 C 292.73093,849.00625 298.00867,850.22981 301.2167,853.58333"
           style="fill:#008830;stroke:none;fill-opacity:1"
           id="path332" />
        <path
           d="M 303.51772,853.33435 C 303.41423,855.35475 304.88128,853.88161 305.97092,855.10516 C 305.11869,854.77036 304.49778,856.5783 303.66381,855.54345 L 303.1403,856.04322 C 303.44467,856.73657 304.03514,856.82788 303.42032,857.5888 C 302.50722,857.93578 302.3246,856.79197 301.89848,856.3409 C 301.82543,856.14062 302.03849,855.7626 301.70369,855.62868 C 301.18626,856.06697 300.64449,856.22524 299.93227,856.1528 C 299.73747,855.7626 299.36006,855.25187 299.74356,854.95359 C 300.4436,854.00944 301.52715,855.29387 302.05675,854.63096 C 302.14198,854.04657 301.63064,853.33435 302.29416,852.93198 C 302.75071,853.01112 303.3351,852.76214 303.5238,853.33435"
           style="fill:#f9d90f;stroke:none;fill-opacity:1"
           id="path334" />
        <path
           d="M 308.97807,854.9895 C 309.03285,855.3797 308.77718,855.92696 309.28852,856.2015 C 309.95204,855.84173 310.65817,856.11566 311.04168,856.77371 C 311.03559,857.12616 311.14516,857.5888 310.68252,857.75925 L 309.64768,857.56506 C 309.72072,857.36357 309.39201,857.23635 309.26417,857.04155 C 308.80762,856.90154 308.53978,857.27226 308.19889,857.49749 C 308.45455,857.88708 309.04503,858.10014 308.90502,858.59991 C 308.29628,859.20804 307.998,858.0764 307.3284,858.3619 C 306.87184,858.18597 307.49275,857.23635 306.77445,856.95024 C 305.92222,856.95024 306.48834,858.34972 305.39871,857.80247 C 305.00912,857.36357 304.62561,856.77371 305.04564,856.28063 C 305.50219,855.97566 306.27528,856.05479 306.66487,856.45047 C 307.3284,855.71451 307.39536,852.87172 308.98415,854.9895"
           style="fill:#f9d90f;stroke:none;fill-opacity:1"
           id="path336" />
        <path
           d="M 302.1785,857.92361 C 302.62288,858.56339 302.0811,859.43327 302.64722,860.14549 C 303.53598,858.48425 304.39429,860.50464 305.45349,860.34637 C 305.77612,860.74205 305.56306,861.29052 305.62394,861.74037 C 304.31516,862.08735 302.73854,862.50129 301.58194,861.45427 L 301.25931,861.8256 C 301.94718,862.46538 302.59853,863.18916 302.05066,864.26054 C 301.0706,864.47359 299.55485,864.49794 299.06178,863.48744 C 298.80611,862.65408 299.65834,862.05144 298.75741,861.38122 C 298.10606,862.19084 298.1365,863.27499 296.77902,862.53782 C 295.93897,862.07518 295.68939,861.12007 296.10941,860.31593 C 296.98599,858.93411 298.52,860.35915 299.46963,859.68285 C 299.60355,858.49582 299.16526,857.46097 300.2549,856.80414 C 301.18626,856.63918 301.61846,857.33922 302.18459,857.92361"
           style="fill:#f9d90f;stroke:none;fill-opacity:1"
           id="path338" />
        <path
           d="M 305.89178,858.648 C 305.45349,860.669 303.93166,858.54452 303.21944,858.45929 C 304.16906,856.77371 304.76562,859.00776 305.89178,858.648"
           style="fill:#ffffff;stroke:none"
           id="path340" />
        <path
           d="M 310.63383,860.84614 C 309.57463,861.14381 309.73899,859.82286 309.21547,859.30543 L 309.62333,858.93411 C 310.00683,859.39674 310.29902,860.23132 310.63383,860.84614"
           style="fill:#ffffff;stroke:none"
           id="path342" />
        <path
           d="M 309.19721,860.44377 C 309.50158,861.14381 308.50934,861.70446 309.35548,862.21519 C 309.62333,861.99056 309.95204,861.6795 310.09205,861.55167 C 310.81645,861.76533 311.6565,861.89317 312.16175,862.61086 C 312.70352,864.09679 311.19995,864.05965 310.34772,864.47359 L 309.50158,864.43707 C 309.70246,864.02313 309.13634,863.8466 308.99633,863.5611 C 308.60674,863.4637 308.28411,863.58484 308.06496,863.91356 C 308.25367,864.8577 309.40418,865.59367 308.21715,866.43372 C 307.21274,866.36737 305.65437,866.75635 305.74569,865.36843 C 305.36827,864.58317 306.76836,863.37178 305.27087,863.32369 C 304.7778,864.38289 304.23602,865.40496 302.95159,864.40115 L 303.10986,862.89149 C 304.33951,862.92741 305.79438,863.14046 306.34833,861.76533 C 306.7014,860.76701 305.73351,859.84782 306.59791,859.05646 C 307.85191,858.77036 308.55804,859.61041 309.19721,860.44377"
           style="fill:#f9d90f;stroke:none;fill-opacity:1"
           id="path344" />
        <path
           d="M 308.29628,862.71435 C 308.61283,863.4637 307.7606,863.5124 307.35883,863.88312 C 306.81706,863.92634 306.43964,863.71267 306.11093,863.34743 C 305.86743,862.44042 306.54313,862.34911 307.06055,861.99056 C 307.6632,861.74037 307.91278,862.44042 308.29628,862.71435"
           style="fill:#000000;stroke:none"
           id="path346" />
        <path
           d="M 307.55971,863.20134 C 307.42579,863.37787 307.23709,863.32369 307.0362,863.37178 L 306.8475,862.46538 C 307.24926,862.50129 307.77277,862.62913 307.55971,863.20134"
           style="fill:#ffffff;stroke:none"
           id="path348" />
      </g>
    </g>
  </g>
</svg>
